<?xml version="1.0"?>
<svg xmlns="http://www.w3.org/2000/svg" height="512px" viewBox="0 -47 512 512" width="512px"><path d="m488.058594 300.523438-4.164063-4.558594c.480469-3.695313.742188-7.652344.699219-11.878906-.273438-27.746094-18.015625-46.144532-24.316406-51.808594-.660156-16.464844-7.316406-36.617188-20.3125-70.601563-17.363282-45.40625-55.90625-60.425781-84.371094-55.171875-13.695312 2.527344-25.402344 9.464844-33.867188 20.058594-1.929687 2.417969-3.652343 5.007812-5.183593 7.746094l-30.542969-23.957032v-6.0625c0-5.523437-4.476562-10-10-10s-10 4.476563-10 10v11.429688c0 3.769531 2.121094 7.21875 5.484375 8.921875.605469.304687 1.171875.664063 1.6875 1.066406l36.257813 28.4375c-.945313 4.925781-1.429688 10.109375-1.429688 15.503907v8.792968l-45.828125-35.941406c-3.625-2.84375-8.71875-2.84375-12.34375 0l-45.828125 35.941406v-8.796875c0-5.390625-.484375-10.574219-1.429688-15.5l36.253907-28.433593c.519531-.40625 1.085937-.765626 1.691406-1.070313 3.363281-1.703125 5.484375-5.152344 5.484375-8.925781v-95.714844h20v12.953125c0 5.523437 4.476562 10 10 10s10-4.476563 10-10v-22.953125c0-5.523438-4.476562-10-10-10h-40c-5.523438 0-10 4.476562-10 10v100.351562l-30.542969 23.957032c-1.53125-2.738282-3.253906-5.328125-5.183593-7.746094-8.464844-10.59375-20.171876-17.53125-33.867188-20.058594-28.460938-5.261718-67.007812 9.765625-84.371094 55.171875-12.996094 33.984375-19.652344 54.136719-20.3125 70.601563-6.300781 5.664062-24.042968 24.0625-24.316406 51.808594-.042969 4.226562.222656 8.183593.699219 11.878906l-4.164063 4.558594c-15.4375 16.910156-23.941406 38.882812-23.941406 61.867187 0 15.855469 6.699219 31.050781 18.378906 41.683594 10.480469 9.542969 23.753906 14.546875 37.292969 14.546875 6.84375 0 13.757813-1.28125 20.414063-3.898438l22.421874-8.832031c49.113282-19.339844 105.492188-49.050781 105.492188-107.601563v-96.441406c3.046875-1.078125 5.925781-2.632812 8.515625-4.667968l43.484375-34.105469 43.484375 34.109375c2.570313 2.011718 5.457031 3.585937 8.515625 4.667968v96.433594c0 58.554688 56.378906 88.261719 105.492188 107.605469l22.421874 8.828125c6.65625 2.621094 13.566407 3.898438 20.414063 3.898438 13.535156 0 26.8125-5.003907 37.292969-14.542969 11.679687-10.632813 18.378906-25.828125 18.378906-41.683594 0-22.984375-8.503906-44.957031-23.941406-61.867187zm-304.058594-2.234376c0 46.210938-46.921875 70.917969-92.820312 88.992188l-22.421876 8.828125c-12.667968 4.988281-26.8125 2.371094-36.914062-6.824219-7.527344-6.851562-11.84375-16.652344-11.84375-26.894531 0-15.898437 5.203125-31.167969 14.746094-43.628906 4.699218 9.800781 9.988281 14.917969 10.386718 15.296875l13.734376-14.539063.082031.078125c-.480469-.476562-11.773438-11.925781-11.542969-35.316406.109375-11.128906 4.40625-20.3125 8.859375-26.871094 4.226563 9.730469 11.300781 18.957032 21.035156 29.882813 3.675781 4.121093 9.996094 4.488281 14.121094.8125 4.121094-3.671875 4.488281-9.992188.8125-14.117188-25.894531-29.066406-28.175781-35.460937-1.519531-105.171875 13.28125-34.722656 41.480468-46.449218 62.0625-42.644531 19.550781 3.609375 31.222656 19.859375 31.222656 43.472656zm296.15625 90.996094c-10.101562 9.195313-24.246094 11.8125-36.914062 6.824219l-22.421876-8.828125c-45.898437-18.074219-92.820312-42.78125-92.820312-88.992188v-128.644531c0-23.613281 11.671875-39.863281 31.226562-43.476562 20.578126-3.8125 48.78125 7.921875 62.058594 42.648437 26.65625 69.710938 24.375 76.105469-1.519531 105.171875-3.671875 4.121094-3.308594 10.445313.816406 14.117188 4.121094 3.671875 10.441407 3.308593 14.117188-.8125 9.734375-10.925781 16.808593-20.15625 21.035156-29.882813 4.453125 6.558594 8.75 15.742188 8.859375 26.871094.230469 23.390625-11.0625 34.839844-11.539062 35.316406l.082031-.082031 13.730469 14.542969c.398437-.378906 5.6875-5.496094 10.386718-15.296875 9.542969 12.460937 14.746094 27.726562 14.746094 43.628906 0 10.242187-4.316406 20.042969-11.84375 26.894531zm0 0" fill="#3cd3d1"/><path d="m276 60.289062c-2.628906 0-5.210938 1.066407-7.070312 2.929688-1.859376 1.859375-2.929688 4.4375-2.929688 7.070312 0 2.628907 1.070312 5.207032 2.929688 7.066407 1.859374 1.863281 4.441406 2.933593 7.070312 2.933593s5.210938-1.070312 7.070312-2.933593c1.859376-1.859375 2.929688-4.4375 2.929688-7.066407 0-2.632812-1.070312-5.210937-2.929688-7.070312-1.859374-1.859375-4.441406-2.929688-7.070312-2.929688zm0 0" fill="#3cd3d1"/><path d="m154 288.289062c-5.523438 0-10 4.476563-10 10v.257813c-.066406 5.519531 4.359375 10.050781 9.882812 10.113281.039063.003906.078126.003906.117188.003906 5.46875 0 9.933594-4.402343 9.996094-9.882812l.003906-.492188c0-5.523437-4.476562-10-10-10zm0 0" fill="#3cd3d1"/><path d="m129.960938 321.808594c-11.121094 9.230468-28.601563 18.472656-53.4375 28.253906-5.140626 2.023438-7.664063 7.832031-5.640626 12.96875 1.546876 3.9375 5.316407 6.339844 9.304688 6.339844 1.21875 0 2.460938-.222656 3.664062-.695313 26.84375-10.574219 46.105469-20.871093 58.882813-31.480469 4.25-3.527343 4.832031-9.832031 1.304687-14.082031-3.527343-4.25-9.832031-4.835937-14.078124-1.304687zm0 0" fill="#3cd3d1"/></svg>
