<?xml version="1.0"?>
<svg xmlns="http://www.w3.org/2000/svg" height="512px" viewBox="0 -36 512 512" width="512px"><path d="m452 0h-392c-33.085938 0-60 26.914062-60 60v240c0 33.085938 26.914062 60 60 60h176v40h-104v40h248v-40h-104v-40h176c33.085938 0 60-26.914062 60-60v-240c0-33.085938-26.914062-60-60-60zm20 300c0 11.027344-8.972656 20-20 20h-392c-11.027344 0-20-8.972656-20-20v-240c0-11.027344 8.972656-20 20-20h392c11.027344 0 20 8.972656 20 20zm-147.449219-160.484375 25.394531-25.394531-28.285156-28.28125-25.394531 25.394531c-6.261719-3.707031-13.0625-6.589844-20.265625-8.484375v-35.628906h-40v35.453125c-7.453125 1.890625-14.484375 4.835937-20.941406 8.660156l-25.398438-25.394531-28.28125 28.28125 25.394532 25.394531c-3.765626 6.363281-6.6875 13.277344-8.578126 20.605469h-36.195312v40h36.195312c1.890626 7.328125 4.8125 14.246094 8.578126 20.605468l-25.394532 25.394532 28.28125 28.285156 25.398438-25.394531c6.457031 3.820312 13.488281 6.769531 20.941406 8.660156v35.449219h40v-35.628906c7.203125-1.894532 14.003906-4.777344 20.265625-8.480469l25.398437 25.394531 28.28125-28.285156-25.394531-25.394532c3.765625-6.363281 6.6875-13.277343 8.582031-20.605468h35.867188v-40h-35.871094c-1.890625-7.328125-4.8125-14.242188-8.578125-20.605469zm-108.890625 40.605469c0-8.585938 2.730469-16.542969 7.355469-23.066406l9.578125-9.578126c6.523438-4.625 14.480469-7.355468 23.066406-7.355468 22.058594 0 40 17.945312 40 40 0 22.058594-17.941406 40-40 40-22.054687 0-40-17.941406-40-40zm0 0" fill="#454080"/></svg>
