<?xml version="1.0" encoding="iso-8859-1"?>
<!-- Generator: Adobe Illustrator 18.0.0, SVG Export Plug-In . SVG Version: 6.00 Build 0)  -->
<!DOCTYPE svg PUBLIC "-//W3C//DTD SVG 1.1//EN" "http://www.w3.org/Graphics/SVG/1.1/DTD/svg11.dtd">
<svg xmlns="http://www.w3.org/2000/svg" xmlns:xlink="http://www.w3.org/1999/xlink" version="1.1" id="Capa_1" x="0px" y="0px" viewBox="0 0 59.012 59.012" style="enable-background:new 0 0 59.012 59.012;" xml:space="preserve" width="512px" height="512px">
<g>
	<path d="M51.525,11.703c-4.476-4.292-8.951-6.181-13.288-5.613c-5.291,0.692-8.703,4.823-9.821,6.389   c-4.969-1.171-5.979-5.404-6.023-5.601c-0.118-0.538-0.647-0.886-1.187-0.764c-0.54,0.115-0.884,0.647-0.768,1.188   c0.053,0.248,1.383,6.092,8.265,7.275l0.669,0.113l0.354-0.577c0.033-0.054,3.328-5.337,8.785-6.042   c3.707-0.481,7.619,1.229,11.63,5.075c8.048,7.717,7.906,17.639,5.09,24.352c-0.234,0.558-0.49,1.1-0.76,1.629   c-0.142-0.078-0.298-0.134-0.472-0.134c-0.552,0-1,0.448-1,1c0,0.364,0.205,0.669,0.496,0.844   c-0.464,0.745-0.964,1.457-1.501,2.132c-0.014-0.54-0.451-0.976-0.995-0.976c-0.552,0-1,0.448-1,1s0.448,1,1,1   c0.053,0,0.098-0.022,0.148-0.03c-0.677,0.755-1.399,1.455-2.162,2.099C48.988,46.038,49,46.018,49,45.993c0-0.552-0.448-1-1-1   s-1,0.448-1,1c0,0.497,0.369,0.891,0.845,0.969c-0.678,0.498-1.377,0.963-2.105,1.373c-0.183-0.206-0.443-0.342-0.74-0.342   c-0.552,0-1,0.448-1,1c0,0.067,0.025,0.125,0.038,0.188c-2.736,1.221-5.734,1.848-8.841,1.743l-0.086-0.002l-0.083,0.012   c-0.073,0.012-7.372,0.952-15.847-4.118l-0.757-0.439l-0.545,0.684c-0.028,0.035-0.702,0.864-1.91,0.932   c-1.221,0.084-2.674-0.688-4.177-2.19c-0.997-0.997-2.39-1.293-3.639-0.779C7.204,45.416,5,46.883,5,52.016c0,0.553,0.448,1,1,1   s1-0.447,1-1c0-3.208,0.99-4.761,1.917-5.145c0.5-0.21,1.033-0.081,1.459,0.345c1.377,1.377,2.735,2.233,4.068,2.586   c0.161,0.111,0.345,0.191,0.556,0.191c0.075,0,0.141-0.027,0.211-0.042c0.309,0.036,0.617,0.055,0.923,0.036   c1.222-0.083,2.126-0.617,2.681-1.067c6.254,3.557,11.766,4.102,14.561,4.102c0.963,0,1.604-0.065,1.84-0.094   c9.427,0.212,18.016-5.495,21.859-14.655C60.997,28.926,58.87,18.745,51.525,11.703z" fill="#3cd3d1"/>
	<path d="M6.405,40.086c3.919-2.333,9.484-0.013,11.079,0.743c0.068,0.042,0.137,0.078,0.215,0.103   c0.139,0.069,0.233,0.117,0.24,0.121l0.712,0.386l0.525-0.615c2.925-3.422,7.405-2.01,7.59-1.951l1.161,0.388l0.148-1.215   c0.337-2.762,4.233-4.252,4.273-4.267L33,33.535v-6.814l-0.557-0.275c-2.776-1.373-2.942-5.018-2.944-5.051l-0.025-0.806   l-0.792-0.147C16.981,18.272,15.299,10.09,15.233,9.742c-0.101-0.54-0.618-0.906-1.162-0.801c-0.543,0.099-0.904,0.619-0.805,1.162   c0.072,0.395,1.87,9.518,14.317,12.158c0.207,1.366,0.927,4.123,3.417,5.667v4.256c-1.222,0.577-3.792,2.049-4.657,4.534   c-1.755-0.322-5.339-0.532-8.149,2.229c-2.054-0.96-8.14-3.356-12.806-0.585C1.813,40.487,0,45.081,0,52.016c0,0.553,0.448,1,1,1   s1-0.447,1-1C2,45.84,3.482,41.826,6.405,40.086z" fill="#3cd3d1"/>
	<circle cx="45" cy="36.993" r="1" fill="#3cd3d1"/>
	<circle cx="51" cy="36.993" r="1" fill="#3cd3d1"/>
	<circle cx="54" cy="33.993" r="1" fill="#3cd3d1"/>
	<circle cx="24" cy="39.993" r="1" fill="#3cd3d1"/>
	<circle cx="30" cy="39.993" r="1" fill="#3cd3d1"/>
	<circle cx="36" cy="39.993" r="1" fill="#3cd3d1"/>
	<circle cx="42" cy="39.993" r="1" fill="#3cd3d1"/>
	<circle cx="48" cy="39.993" r="1" fill="#3cd3d1"/>
	<circle cx="15" cy="42.993" r="1" fill="#3cd3d1"/>
	<circle cx="21" cy="42.993" r="1" fill="#3cd3d1"/>
	<circle cx="24" cy="45.993" r="1" fill="#3cd3d1"/>
	<circle cx="27" cy="42.993" r="1" fill="#3cd3d1"/>
	<circle cx="33" cy="42.993" r="1" fill="#3cd3d1"/>
	<circle cx="27" cy="48.993" r="1" fill="#3cd3d1"/>
	<circle cx="33" cy="48.993" r="1" fill="#3cd3d1"/>
	<circle cx="30" cy="45.993" r="1" fill="#3cd3d1"/>
	<circle cx="36" cy="45.993" r="1" fill="#3cd3d1"/>
	<circle cx="39" cy="42.993" r="1" fill="#3cd3d1"/>
	<circle cx="45" cy="42.993" r="1" fill="#3cd3d1"/>
	<circle cx="39" cy="48.993" r="1" fill="#3cd3d1"/>
	<circle cx="42" cy="45.993" r="1" fill="#3cd3d1"/>
</g>
<g>
</g>
<g>
</g>
<g>
</g>
<g>
</g>
<g>
</g>
<g>
</g>
<g>
</g>
<g>
</g>
<g>
</g>
<g>
</g>
<g>
</g>
<g>
</g>
<g>
</g>
<g>
</g>
<g>
</g>
</svg>
