<?xml version="1.0" encoding="utf-8"?>
<!-- Generator: Adobe Illustrator 22.0.0, SVG Export Plug-In . SVG Version: 6.00 Build 0)  -->
<svg version="1.1" id="Layer_1" xmlns="http://www.w3.org/2000/svg" xmlns:xlink="http://www.w3.org/1999/xlink" x="0px" y="0px"
	 viewBox="0 0 450 400" style="enable-background:new 0 0 450 400;" xml:space="preserve">
<style type="text/css">
	.st0{fill:#E4C4FF;}
	.st1{fill:#F36B80;}
	.st2{fill:#5C407B;}
	.st3{fill:#8B5DD0;}
	.st4{fill:#F2F2F2;}
	.st5{fill:#31DAE7;}
	.st6{fill:#E25A74;}
	.st7{fill:#34BED1;}
	.st8{fill:#FFB3C5;}
	.st9{fill:#472A6A;}
	.st10{fill:#EA94AD;}
	.st11{fill:#E1DDE7;}
	.st12{fill:#FF8DA3;}
	.st13{fill:#FFFFFF;}
	.st14{fill:#86B1F2;}
	.st15{fill:#B984F9;}
</style>
<g>
	<polygon class="st0" points="146,82.6 141.8,83.9 139.1,77.4 132.8,78.6 129.9,74.1 127.6,75.5 131.4,81.5 137.4,80.5 140.3,87.2 
		146.6,85.3 	"/>
	<polygon class="st1" points="412.3,314.8 408.2,316.1 405.4,309.6 399.1,310.7 396.2,306.3 393.9,307.7 397.8,313.7 403.7,312.7 
		406.6,319.4 412.9,317.5 	"/>
	<g>
		<g>
			<path class="st1" d="M120.4,391.2c0,0-22.2-75.1-23.9-91.7c-1.8-16.6,10.6-11.4,10.6-11.4s-10.4-31.6-2.9-39.1
				c7.5-7.5,14.3,6.5,14.3,6.5s2.3-38.3,10.3-38.3c15,0,14.7,41.8,14.7,41.8s3.8-16.4,11.8-11.9c12.1,6.8-5.2,39.6-5.2,39.6
				s15.4,0,20.8,7.8C180.6,308.4,120.4,391.2,120.4,391.2z"/>
		</g>
	</g>
	<g>
		<g>
			<path class="st2" d="M127.7,381.3c0,0-63.9-10.7-77.8-22c-13.9-11.3-0.1-16.4-0.1-16.4S17.6,326.4,18,315.2
				c0.4-11.2,16.3-5.5,16.3-5.5s-27-30.8-20.6-36.7c11.9-10.9,43.2,21.1,43.2,21.1s-9.3-15.2,0.5-17.7c14.7-3.6,25.6,33.9,25.6,33.9
				s-2.8-14.8,7.4-12.9C108.6,301.2,127.7,381.3,127.7,381.3z"/>
		</g>
		<path class="st0" d="M90.4,297.6c-10.2-1.8-7.4,12.9-7.4,12.9s-10.9-37.6-25.6-33.9c-9.8,2.4-0.5,17.7-0.5,17.7
			S25.6,262.1,13.7,273l113.8,108.3C125.4,371,107.5,300.7,90.4,297.6z"/>
	</g>
	<g>
		<path class="st2" d="M145.8,390.1c0,0-33.6-34.2-50.6-37.8c-16.9-3.6-13.9,8.5-13.9,8.5s-33.6-29.4-41.4-22.3
			c-7.8,7.1,0.6,14,0.6,14s-28-5-32,4.2c-6.2,14.1,39.9,21.8,39.9,21.8s-19.3,1.3-14.8,10.2C40.4,402.1,145.8,390.1,145.8,390.1z"/>
		<path class="st3" d="M8.6,356.8c4-9.2,32-4.2,32-4.2s-8.4-6.9-0.6-14c7.8-7.1,40.4,18.3,40.4,18.3s-7.7-14.7,9.3-11.1
			c16.9,3.6,56.3,44.4,56.3,44.4L8.6,356.8z"/>
	</g>
	<g>
		<path class="st4" d="M199.4,37.2c-11.3,1.9-14.7,16.7-5.3,23.4c1.7,1.2,2.9,3,3.4,5l1.7,6.9c0.5,1.9,2.3,3.1,4.3,2.8l4.3-0.7
			c1.9-0.3,3.3-2.1,3.1-4c-0.6-7.1-1.3-9.7,1-12.9C218.7,48.4,210.7,35.4,199.4,37.2z"/>
		<g>
			<path class="st5" d="M200.5,67.5c-0.7-6.1-1.8-12.6-2.1-14.4c-6.5,0.4-4-6.5-1-3.7c0.9,0.8,1.3,1.9,1.5,3
				c2.2-0.2,4.3-0.8,6.2-1.8c-0.1-1.5-0.3-2.7,0.2-3.6c0.6-1.5,2.5-1.9,3.2-0.4c0.3,0.5,0.3,1.2,0.1,1.8c-0.4,1.2-1.7,2-2.9,2.6
				c0.3,4.9,0.8,9.8,1.4,14.6l-0.6,0.1c-0.6-4.7-1.1-9.6-1.4-14.4c-1.9,0.9-4,1.5-6.1,1.7c0.4,2.3,1.4,8.6,2.1,14.4L200.5,67.5z
				 M195.3,51.6c0.6,0.6,1.5,0.9,3,0.8c-0.2-1-0.6-2-1.3-2.6C195.4,48.3,194.4,50.6,195.3,51.6z M205.8,47.2c-0.4,0.8-0.2,1.9-0.1,3
				c0.9-0.5,2-1.2,2.4-2.2c0.2-0.7,0-1.6-0.7-1.8C207.3,46.3,206.1,46.7,205.8,47.2z"/>
		</g>
		<path class="st5" d="M197.4,65.4c0,0.1,0,0.1,0.1,0.2l1.7,6.9c0.5,1.9,2.3,3.1,4.3,2.8l4.3-0.7c1.9-0.3,3.3-2.1,3.1-4
			c-0.3-3.2-0.6-5.4-0.6-7.3L197.4,65.4z"/>
		<g>
			<path class="st4" d="M191,32.1l-3.4-6.2c-0.3-0.6-0.1-1.3,0.5-1.7c0.6-0.3,1.3-0.1,1.7,0.5l3.4,6.2c0.3,0.6,0.1,1.3-0.5,1.7
				C192.1,32.9,191.3,32.7,191,32.1z"/>
		</g>
		<g>
			<path class="st4" d="M183.6,47l-7.4-0.6c-0.7-0.1-1.2-0.7-1.1-1.3c0.1-0.7,0.7-1.2,1.3-1.1l7.4,0.6c0.7,0.1,1.2,0.7,1.1,1.3
				C184.9,46.6,184.3,47.1,183.6,47z"/>
		</g>
		<g>
			<path class="st4" d="M176.3,69.7c-0.5-0.5-0.5-1.3,0-1.7c1.8-1.8,3.8-3.4,5.9-4.8c0.6-0.4,1.3-0.2,1.7,0.3
				c0.4,0.6,0.2,1.3-0.3,1.7c-2,1.3-3.9,2.9-5.6,4.5C177.5,70.2,176.8,70.2,176.3,69.7z"/>
		</g>
		<g>
			<path class="st4" d="M209.2,31.7c-0.7-0.2-1.1-0.9-0.9-1.5c0.8-3.1,1.3-6.4,1.5-9.6c0-0.7,0.6-1.2,1.3-1.2c0.7,0,1.2,0.6,1.2,1.3
				c-0.2,3.4-0.7,6.8-1.6,10.1C210.6,31.5,209.9,31.9,209.2,31.7z"/>
		</g>
		<g>
			<path class="st4" d="M216.8,41.2c-0.2-0.7,0.2-1.3,0.8-1.5l7.7-2.3c0.7-0.2,1.3,0.2,1.5,0.8c0.2,0.7-0.2,1.3-0.8,1.5l-7.7,2.3
				C217.7,42.3,217,41.9,216.8,41.2z"/>
		</g>
		<g>
			<path class="st4" d="M229.4,61.7c-0.1,0-0.2,0-0.3,0c-2.7-0.7-5.2-1.8-7.7-3.1c-0.6-0.3-0.8-1.1-0.5-1.7c0.3-0.6,1.1-0.8,1.7-0.5
				c2.3,1.2,4.7,2.2,7.2,2.9c0.7,0.2,1,0.9,0.9,1.5C230.5,61.3,230,61.7,229.4,61.7z"/>
		</g>
	</g>
	<path class="st0" d="M341.8,116.3l-3.9-9.2l-9.7-2c-1.1-0.2-1.5-1.6-0.6-2.4l7.5-6.5l-1.1-9.9c-0.1-1.1,1.1-1.9,2.1-1.3l8.5,5.1
		l9.1-4.1c1-0.5,2.2,0.5,1.9,1.6l-2.2,9.7l6.7,7.3c0.8,0.8,0.2,2.2-0.9,2.3l-9.9,0.9l-4.9,8.6C343.7,117.4,342.3,117.3,341.8,116.3z
		"/>
	<polygon class="st1" points="403.5,84.8 401.9,91.3 391.3,89.8 387.8,98.9 379.7,99.1 379.8,103.2 390.7,102.9 394,94.3 405,95.8 
		407.4,86.2 	"/>
	<path class="st6" d="M309.1,392.1H122.8c-7.1,0-12.9-6-12.9-13.4v-7.9c0-7.4,5.8-13.4,12.9-13.4h186.3l0,0
		c-8.5,9.7-8.7,24.4-0.3,34.3L309.1,392.1z"/>
	<path class="st4" d="M306.2,361.4H202.9c-7.1,0-12.9,6-12.9,13.4l0,0c0,7.4,5.8,13.4,12.9,13.4h103.3
		C301.4,379.9,301.4,369.6,306.2,361.4z"/>
	<path class="st3" d="M243.6,333.3c0.3-0.5-0.1-1.1-0.8-1.1h-98.6c-7.7,0-14,5.6-14,12.6l0,0c0,7,6.3,12.6,14,12.6h98.6
		c0.6,0,1-0.6,0.8-1.1l0,0C239.8,349,239.8,340.6,243.6,333.3z"/>
	<path class="st4" d="M243,334.6h-48.8c-9.1,0-16.4,4.7-16.4,10.5c0,5.8,7.3,10.5,16.4,10.5h49.2C240,349,239.9,341.3,243,334.6z"/>
	<g>
		<path class="st7" d="M230.4,339.6H224c-1.4,0-2.5,0.5-2.5,1v0.1h8.8V339.6z"/>
		<path class="st5" d="M235.8,342.2c0-1.4-1.7-2.6-3.7-2.6H224c1.6,0,2.8,0.9,2.8,2l0,27.6l4.5-3.5l4.6,3.5L235.8,342.2z"/>
	</g>
	<g>
		<path class="st4" d="M225.5,331.3h-57.3c-5.1,0-9.2-4.9-9.2-10.9l0,0c0-6,4.1-10.9,9.2-10.9h57.3l0,0c-4.4,6.1-4.6,14.9-0.4,21.2
			L225.5,331.3z"/>
		<path class="st2" d="M159,320.4L159,320.4c0-6,4.2-10.9,9.4-10.9h58.2c0.3,0,0.5-0.3,0.5-0.6l0,0c0-0.3-0.2-0.6-0.5-0.6h-92.3
			c-5.7,0-10.4,5.4-10.4,12.1l0,0c0,6.7,4.7,12.1,10.4,12.1h92.3c0.3,0,0.5-0.3,0.5-0.6l0,0c0-0.3-0.2-0.6-0.5-0.6h-58.2
			C163.2,331.3,159,326.5,159,320.4z"/>
		<g>
			<path class="st7" d="M215.5,314.9h-6.4c-1.4,0-2.5,0.5-2.5,1v0.1h8.8V314.9z"/>
			<path class="st5" d="M220.9,317.4c0-1.4-1.7-2.5-3.7-2.5h-8.2c1.6,0,2.8,0.9,2.8,1.9l0,27l4.5-3.5l4.6,3.5L220.9,317.4z"/>
		</g>
	</g>
	<g>
		<g>
			<path class="st0" d="M316.9,147.8l8.5-2.2l-5.7,76.5l-10.2,0.3l5.1-71.9C314.7,149.3,315.6,148.1,316.9,147.8z"/>
			<g>
				<path class="st1" d="M320.4,224.3c-0.2,0-0.4,0-0.6,0c-1.7-0.2-2.9-1.9-2.8-3.7l5.6-72c0.1-1.9,1.6-3.2,3.3-3
					c1.7,0.2,2.9,1.9,2.8,3.7l-5.6,72C323,222.9,321.8,224.1,320.4,224.3z"/>
				<path class="st1" d="M242.5,228.1c0,0.1,0,0.1,0,0.2l0,0c0.3,2.9,2.5,5.1,5.1,4.9l71.5-6.4c2.5-0.2,4.4-2.8,4.1-5.7
					c0-0.1,0-0.2,0-0.4L242.5,228.1z"/>
			</g>
		</g>
		<path class="st8" d="M292.2,305.4c-4.7,2.6-19-2-19-2.4c-0.2,3.9-16,42.2-16,42.2l0,11.8c0,0,32.6,1.6,32.1-1.3
			c-0.5-2.9-2.2-1-8.7-6.4c-0.6-0.5-9.7-2.6-7.2-8C278.4,330.3,289,312.2,292.2,305.4z"/>
		<path class="st2" d="M256.2,357.4l35.7,0c1.3-0.1,1.6-1.2,1.1-1.8c-0.9-1.3-7.8-4.4-12.4-6.5c-8,0.9-22.1-2.1-23.4-4
			C253.9,349.7,255.5,357.3,256.2,357.4z"/>
		<path class="st9" d="M248.3,277.9c-0.5-1.4,30.7-14.7,32.1-13.2c2.5,2.7-16.9,52.9-16.9,52.9l22.2,6.8c0,0,23.1-58,22.1-68.6
			c-1-10.6-12.5-22.7-37.6-15C245.2,248.6,248.3,277.9,248.3,277.9z"/>
		<path class="st8" d="M312.9,312c-5.3-1-12.1-1.2-17.6-1.3c0.6,4.9,3.8,29.8,3.2,31.3c-2.3,6.2-7.5,9.1-7.5,9.1
			s24.2,21.9,25.7,19.3c1.5-2.5-1.1-2.2-2.7-10.5c-0.1-0.7-3.6-12.4-3.9-18.6C309.9,329.4,312.8,318.6,312.9,312z"/>
		<path class="st2" d="M305.2,230.4c-3.4-1.8-12.2-1.9-21.8-1.2c-18.8,1.2-37.4,4.9-55.3,10.8l-12,4l0-12.3c0,0-38.1-6.4-39.4,3.1
			c-2,14.2,0.5,43.1,13.2,49.5c39.4,20,94.7-31.9,94.9-25.1c0.3,9.1,8,43,9.9,57.9c5.5,0.1,14.9,0.1,18.9-0.8
			C314.4,287.1,314.8,235.5,305.2,230.4z"/>
		<path class="st2" d="M290.4,351.7l27.2,21.8c1.1,0.7,2,0.1,2-0.7c0.1-1.6-3.2-8.3-5.5-12.8c-6.8-4.4-15.7-15.7-15.6-17.9
			C295.7,344.4,289.9,351.1,290.4,351.7z"/>
		<path class="st9" d="M228.8,111.7c-0.9-8.4-1.9-16.8-8.8-22.9c-5.6-5-12.7-5.8-19.8-3.1c-20,7.5-9.7,25.3-35.2,43.2
			c-7.9,5.6-16.6,9.4-22.6,16.9c-8.3,10.5-5.2,23.1,2.4,31.5c36.4,40.3,77-14.1,79.9-27.2C226.9,140.3,229.3,117.1,228.8,111.7z"/>
		<path class="st4" d="M221.4,158.7c-3-5.5-6-9.8-6-9.8c-3.1-5.5-11-8.3-11-8.3s-2.7,0.1-5.7,0.2c-0.2,0.5-0.4,0.9-0.6,1
			c-1.1,0.9-7.7-0.3-12,2.6c-14.3,12.2-10.3,71.5-9.2,90.2l43.4,0.4c0,0-5.5-40.3,3.3-50.6C229.7,177.3,225.8,166.9,221.4,158.7z"/>
		<path class="st8" d="M201.8,120.6c0,0-2.4,17.1-4.1,21.2c-1.7,4.1,9.2,13,18.2,15.7c9,2.7-2.8-9.2-2.4-13.6c0.4-4.4,2-25.4,2-25.4
			L201.8,120.6z"/>
		<path class="st10" d="M215.1,124.5c0.3-3.5,0.5-6,0.5-6l-13.8,2.1c0,0-0.3,2-0.7,4.8C206.6,128.7,211.7,127.7,215.1,124.5z"/>
		<path class="st8" d="M206.1,89.5c0,0-5.4,1.2-8.8,6.3c-3.3,5.1-5.6,20.2,5.4,27.2c11,7,19.6-2.9,19.8-12.6
			C222.6,100.7,220.5,87.8,206.1,89.5z"/>
		<path class="st8" d="M225,107.4c-0.9,2.3-2.8,3.8-4.2,3.2c-1.4-0.5-1.7-2.9-0.8-5.2c0.9-2.3,2.8-3.8,4.2-3.2
			C225.6,102.7,225.9,105,225,107.4z"/>
		<path class="st9" d="M207.7,89.2c0,0-6.9,15.5-13,16.9c-6.1,1.4-6,9.2-6,9.2s0.1-18,5.8-22.2C200.3,88.9,207.7,89.2,207.7,89.2z"
			/>
		<path class="st8" d="M197.2,109.3c0.8,2.5,0.1,5-1.6,5.5c-1.7,0.5-3.7-1.1-4.5-3.6c-0.8-2.5-0.1-5,1.6-5.5
			C194.3,105.2,196.4,106.8,197.2,109.3z"/>
		<path class="st8" d="M274.9,221.3c-2.6-0.9-6.5-1.1-6.4-1.4c0.3-1.4,11.8,3.1,10.2,1c-0.9-1.1-9.5-5.1-11.6-4.5
			c-2,0.6-15.4,4.4-15.4,4.4l-36.5-8.5c0,0-9.2-20.9-10.1-38.9c-7.6,1-12.8,2.9-19.4,6.6c3.2,17.2,10.9,45.1,19.5,50.3
			c3.6,2.2,46.7-2.6,46.7-2.6s9.5-0.7,11-1.3c1.2-0.5,4.2-2.2,5.8-2.6c3.7-1.1,10.4,1.6,10.4,0.9C279.2,224,277.5,222.2,274.9,221.3
			z"/>
		<path class="st11" d="M205.3,154.2c-0.4-5.5-2.4-10.9-8.3-12.6c-3.6-1.1-7.7,0-10.7,2.3c-3.5,2.8-4.4,7.4-4.4,11.7
			c0,9.8,0.7,19.9,2.5,29.5c6.6-3.7,14.3-5.9,21.9-6.9C206.4,178.1,205.8,161.5,205.3,154.2z"/>
	</g>
	<g>
		<path class="st11" d="M92.3,164.6l-56.5-10.5c-1.1-0.2-1.9-1.3-1.7-2.4l7.1-38c0.2-1.1,1.3-1.9,2.4-1.7l56.5,10.5
			c1.1,0.2,1.9,1.3,1.7,2.4l-7.1,38C94.6,164.1,93.5,164.8,92.3,164.6z"/>
		<path class="st11" d="M65.4,121.1l-17.2-3.2c-1.1-0.2-1.9-1.3-1.7-2.4l1.1-5.8c0.2-1.1,1.3-1.9,2.4-1.7l17.2,3.2
			c1.1,0.2,1.9,1.3,1.7,2.4l-1.1,5.8C67.6,120.6,66.6,121.3,65.4,121.1z"/>
		<path class="st4" d="M94.9,163.2c-0.3,1-1.3,1.7-2.4,1.5L35.6,154c-1.1-0.2-1.8-1.2-1.7-2.2l3-34.1c0.1-0.6,0.3-1.1,0.8-1.5
			c0.5-0.4,1.1-0.5,1.6-0.4l63.2,11.8c0.6,0.1,1.1,0.5,1.4,1c0.3,0.5,0.4,1.1,0.2,1.7L94.9,163.2z"/>
	</g>
	<g>
		<polygon class="st1" points="354.3,38.6 344.6,41.2 342.5,29.5 345.7,28.9 347.1,37.2 353.4,35.5 		"/>
	</g>
	<g>
		<path class="st3" d="M45.8,199.7c2.4-0.2,6.1,0.9,7.8,2c0.3,0.2,2.2,1,4.2,4.3l-0.4,0.3c-2.1-2.2-3.5-2.7-5.2-3.2
			c-2.8-0.7-5.6-0.2-5.8-0.1L45.8,199.7z"/>
		<path class="st1" d="M57.5,206.2c0,0-14.8,2.5-13.4,14c1.4,11.5,17,20.5,30.9,13.4c18.7-9.6,11.3-34-2-35.9
			C59.7,195.8,57.5,206.2,57.5,206.2z"/>
		<path class="st12" d="M63.8,201.1c0,0,3.9-4,12.3-0.4c8.4,3.6,9.1,20.4,1.5,19.4C70.1,219.2,57.8,203.5,63.8,201.1z"/>
	</g>
	<g>
		<path class="st5" d="M165.4,47.8l-60.8,21.7c-2,0.7-4.1-0.3-4.8-2.3L88.7,35.7c-0.7-2,0.3-4.1,2.3-4.8l60.8-21.7
			c2-0.7,4.1,0.3,4.8,2.3l11.2,31.4C168.4,44.9,167.4,47.1,165.4,47.8z"/>
		<path class="st13" d="M125.2,39.7c2.2,6.3-1,13.2-7.3,15.4c-6.3,2.2-13.2-1-15.4-7.3c-2.2-6.3,1-13.2,7.3-15.4
			C116,30.1,122.9,33.4,125.2,39.7z"/>
		<path class="st14" d="M115.6,38c0.7,1.8-0.3,3.9-2.2,4.5c-1.8,0.7-3.9-0.3-4.5-2.2c-0.7-1.8,0.3-3.9,2.2-4.5
			C112.9,35.2,114.9,36.1,115.6,38z"/>
		<path class="st14" d="M121.3,47.9l-10.7,3.8l-0.3-0.8c-0.9-2.4,0.4-5,2.8-5.9l2-0.7c2.4-0.9,5,0.4,5.9,2.8L121.3,47.9z"/>
		<g>
			<path class="st13" d="M126.7,33.1c-0.6,0-1.2-0.4-1.4-1c-0.3-0.8,0.1-1.7,0.9-2l26.6-9.5c0.2-0.1,0.3-0.1,0.5-0.1
				c0.6,0,1.2,0.4,1.4,1c0.3,0.8-0.1,1.7-0.9,2L127.2,33C127,33.1,126.8,33.1,126.7,33.1z"/>
		</g>
		<g>
			<path class="st13" d="M133.8,39.7c-0.6,0-1.2-0.4-1.4-1c-0.3-0.8,0.1-1.7,0.9-2l20.7-7.4c0.2-0.1,0.3-0.1,0.5-0.1
				c0.6,0,1.2,0.4,1.4,1c0.1,0.4,0.1,0.8-0.1,1.2c-0.2,0.4-0.5,0.7-0.9,0.8l-20.7,7.4C134.2,39.7,134,39.7,133.8,39.7z"/>
		</g>
	</g>
	<path class="st5" d="M259.9,284.9H113.1c-4.6,0-8.3,3.7-8.3,8.3v6.9c0,4.6,3.7,8.3,8.3,8.3h146.7l-0.1-0.1
		C253.5,301.7,253.5,291.4,259.9,284.9z"/>
	<path class="st4" d="M257.3,288.4h-78.4c-4.6,0-8.3,3.7-8.3,8.3l0,0c0,4.6,3.7,8.3,8.3,8.3h78.4
		C254.4,299.8,254.4,293.5,257.3,288.4z"/>
	<g>
		<g>
			<path class="st4" d="M379.9,285.6l-11.1-27.9c-0.6-1.4,0.1-3,1.5-3.6l40-16c1.4-0.6,3,0.1,3.6,1.5l11.1,27.9
				c0.6,1.4-0.1,3-1.5,3.6l-40,16C382.1,287.7,380.5,287,379.9,285.6z"/>
			<path class="st5" d="M417.7,269.5l-10-25.1c-0.2-0.4,0-0.9,0.4-1l0,0c0.4-0.2,0.9,0,1,0.4l10,25.1c0.2,0.4,0,0.9-0.4,1l0,0
				C418.3,270.1,417.9,269.9,417.7,269.5z"/>
			<path class="st5" d="M412.9,266.2l-8.2-20.6c-0.2-0.4,0-0.9,0.4-1l0,0c0.4-0.2,0.9,0,1,0.4l8.2,20.6c0.2,0.4,0,0.9-0.4,1l0,0
				C413.6,266.8,413.1,266.6,412.9,266.2z"/>
			<path class="st5" d="M411.8,271.8l-10-25.1c-0.2-0.4,0-0.9,0.4-1l0,0c0.4-0.2,0.9,0,1,0.4l10,25.1c0.2,0.4,0,0.9-0.4,1l0,0
				C412.4,272.4,411.9,272.2,411.8,271.8z"/>
			<path class="st5" d="M406.5,267.3l-7.7-19.4c-0.2-0.4,0-0.9,0.4-1l0,0c0.4-0.2,0.9,0,1,0.4l7.7,19.4c0.2,0.4,0,0.9-0.4,1l0,0
				C407.1,267.9,406.7,267.7,406.5,267.3z"/>
			<g>
				<path class="st5" d="M417.4,241.7l-0.2-0.5c-0.1-0.2-0.3-0.3-0.5-0.2l-3.8,1.5c-0.2,0.1-0.3,0.3-0.2,0.5l0.2,0.5
					c0.1,0.2,0.3,0.3,0.5,0.2l3.8-1.5C417.4,242.1,417.5,241.9,417.4,241.7z"/>
				<path class="st5" d="M418.3,243.9l-0.2-0.5c-0.1-0.2-0.3-0.3-0.5-0.2l-3.8,1.5c-0.2,0.1-0.3,0.3-0.2,0.5l0.2,0.5
					c0.1,0.2,0.3,0.3,0.5,0.2l3.8-1.5C418.3,244.3,418.4,244.1,418.3,243.9z"/>
				<path class="st5" d="M419.2,246l-0.2-0.5c-0.1-0.2-0.3-0.3-0.5-0.2l-3.8,1.5c-0.2,0.1-0.3,0.3-0.2,0.5l0.2,0.5
					c0.1,0.2,0.3,0.3,0.5,0.2l3.8-1.5C419.1,246.4,419.2,246.2,419.2,246z"/>
				<path class="st5" d="M420,248.2l-0.2-0.5c-0.1-0.2-0.3-0.3-0.5-0.2l-3.8,1.5c-0.2,0.1-0.3,0.3-0.2,0.5l0.2,0.5
					c0.1,0.2,0.3,0.3,0.5,0.2l3.8-1.5C420,248.6,420.1,248.4,420,248.2z"/>
				<path class="st5" d="M420.9,250.3l-0.2-0.5c-0.1-0.2-0.3-0.3-0.5-0.2l-3.8,1.5c-0.2,0.1-0.3,0.3-0.2,0.5l0.2,0.5
					c0.1,0.2,0.3,0.3,0.5,0.2l3.8-1.5C420.9,250.7,421,250.5,420.9,250.3z"/>
				<path class="st5" d="M421.7,252.5l-0.2-0.5c-0.1-0.2-0.3-0.3-0.5-0.2l-3.8,1.5c-0.2,0.1-0.3,0.3-0.2,0.5l0.2,0.5
					c0.1,0.2,0.3,0.3,0.5,0.2l3.8-1.5C421.7,252.9,421.8,252.7,421.7,252.5z"/>
				<path class="st5" d="M422.6,254.7l-0.2-0.5c-0.1-0.2-0.3-0.3-0.5-0.2l-3.8,1.5c-0.2,0.1-0.3,0.3-0.2,0.5l0.2,0.5
					c0.1,0.2,0.3,0.3,0.5,0.2l3.8-1.5C422.6,255.1,422.7,254.9,422.6,254.7z"/>
				<path class="st5" d="M423.5,256.8l-0.2-0.5c-0.1-0.2-0.3-0.3-0.5-0.2l-3.8,1.5c-0.2,0.1-0.3,0.3-0.2,0.5l0.2,0.5
					c0.1,0.2,0.3,0.3,0.5,0.2l3.8-1.5C423.5,257.2,423.5,257,423.5,256.8z"/>
				<path class="st5" d="M424.3,259l-0.2-0.5c-0.1-0.2-0.3-0.3-0.5-0.2l-3.8,1.5c-0.2,0.1-0.3,0.3-0.2,0.5l0.2,0.5
					c0.1,0.2,0.3,0.3,0.5,0.2l3.8-1.5C424.3,259.4,424.4,259.2,424.3,259z"/>
				<path class="st5" d="M425.2,261.1l-0.2-0.5c-0.1-0.2-0.3-0.3-0.5-0.2l-3.8,1.5c-0.2,0.1-0.3,0.3-0.2,0.5l0.2,0.5
					c0.1,0.2,0.3,0.3,0.5,0.2l3.8-1.5C425.2,261.5,425.3,261.3,425.2,261.1z"/>
				<path class="st5" d="M426,263.3l-0.2-0.5c-0.1-0.2-0.3-0.3-0.5-0.2l-3.8,1.5c-0.2,0.1-0.3,0.3-0.2,0.5l0.2,0.5
					c0.1,0.2,0.3,0.3,0.5,0.2l3.8-1.5C426,263.7,426.1,263.5,426,263.3z"/>
				<path class="st5" d="M426.9,265.5l-0.2-0.5c-0.1-0.2-0.3-0.3-0.5-0.2l-3.8,1.5c-0.2,0.1-0.3,0.3-0.2,0.5l0.2,0.5
					c0.1,0.2,0.3,0.3,0.5,0.2l3.8-1.5C426.9,265.9,427,265.7,426.9,265.5z"/>
			</g>
		</g>
		<g>
			<path class="st1" d="M437.4,263.2l-15.9,22.6c0,0.1-0.1,0.1-0.1,0.2l-1.6,5c-0.2,0.6,0.5,1.1,1,0.7l4.3-3.2
				c0.1,0,0.1-0.1,0.1-0.1l15.9-22.7c0.2-0.3,0.1-0.7-0.2-0.9l-2.7-1.7C438,262.9,437.6,263,437.4,263.2z"/>
			<path class="st4" d="M425.1,288.4L425.1,288.4l-4.1,3.1l-1.1-0.7l1.5-4.7C422.6,286.7,424.1,287.4,425.1,288.4z"/>
		</g>
	</g>
	<g>
		<path class="st15" d="M276.5,18.4c2.3,1.8,6.3,7.7,11.3,11.8c3,2.4,5.3,1.8,9,2.3c18,2.2,13.1,5.8,15.3,6.2
			c-0.6,1.4-6.2,13.3-7.3,15.7c-1,2.2-2.6,3.2-5.1,2.9c-3.7-0.5-7.5-0.9-11.1-1.7c-9.4-2-14.6-6.7-21.3-12.4
			c-1.8-1.5-2.2-3.4-1.3-5.5C270.4,27.7,276,19.3,276.5,18.4z"/>
		<path class="st0" d="M314.1,53c-0.1,3.9,0.2,4.7-1.5,4.1c-1-0.4-2-0.8-3-1.3c-0.7-0.3-0.7-0.8-0.2-1.4c0.8-0.8,1.6-1.6,2.4-2.4
			c-0.6-1.5,0.1-3.3,1.5-4.2c0.3-0.2,0.1,0.2,2.6-5.6c-8.3-1-14.1-1.7-24.2-2.9c-2.7-0.3-5.1-1.4-7.2-3.1
			c-7.2-6-14.4-12.1-21.6-18.1c-1-0.8-1.1-2-0.3-2.9c0.6-0.7,1.4-0.7,2.2-0.6c2.3,0.3,24.9,3.1,27.2,3.4c3,0.4,5.7,1.5,8,3.4
			c7.1,5.9,14.2,11.8,21.3,17.8c1,0.8,1.2,1.6,0.9,2.5c-0.4,1-1.2,1.5-2.4,1.2c-0.9-0.2-1.3,0.1-1.6,0.9c-1.4,3.7-2.4,4.6-2,5.9
			C316.5,50.7,315.2,52.5,314.1,53z"/>
	</g>
	<g>
		<path class="st5" d="M351.6,319.1l4.1,3.9c9.7,9.3,17.7,20.3,23.4,32.5l0.6,1.3c0,0,10.8,1,12.3-8.8l0,0
			c-9.5-10.7-17.3-22.1-23.7-34.8l-1.9-4.6L351.6,319.1z"/>
		<path class="st4" d="M366.4,308.7c0.5,0.8-2.4,3.7-6.5,6.6c-4.1,2.9-7.9,4.6-8.4,3.8c-0.5-0.8,2.4-3.7,6.5-6.6
			C362.1,309.7,365.9,308,366.4,308.7z"/>
		<path class="st4" d="M366.4,308.8L366.4,308.8c0,0-8.2,6.9-11.6,7.6l1,1.4c1.2-0.7,2.6-1.5,4.1-2.5
			C364,312.5,366.9,309.6,366.4,308.8z"/>
		<g>
			<path class="st1" d="M377.4,328.9c0,1.2-0.4,6.4-9,8.5c0.6,0.8,1.1,1.5,1.7,2.3c5.4-1.6,7.9-4.4,9-6.5c0.2-0.3,0.4-0.8,0.5-1.1
				C378.8,331.1,378.1,330,377.4,328.9z"/>
			<polygon class="st1" points="369.1,335.9 356.5,335.5 359.5,338 357.7,341.3 369.7,338.2 			"/>
			<polygon class="st1" points="370.3,338.9 365.8,346.7 368.9,345.5 370.2,348 372.3,339.8 			"/>
			<path class="st1" d="M372,341c-2.2,0.2-4.2-1.6-4.3-3.9c-0.2-2.3,1.5-4.3,3.7-4.4c2.2-0.2,4.2,1.6,4.3,3.9
				C375.9,338.9,374.2,340.8,372,341z"/>
		</g>
	</g>
	<g>
		<path class="st5" d="M398.9,163.2l-26.7-23.8c-1.7-1.5-1-4.7,1.4-6.1l21.3-12c1.4-0.8,2.9-0.7,3.9,0.2l26.7,23.8
			c1.7,1.5,1,4.7-1.4,6.1l-21.3,12C401.4,164.1,399.9,164.1,398.9,163.2z"/>
		<g>
			<path class="st13" d="M397.6,144.3l-2.2-18.3c-0.1-0.7,0.4-1.4,1.1-1.7c0.7-0.2,1.4,0.2,1.4,0.9l2,16.8l20.2,4.9
				c0.7,0.2,1,0.9,0.7,1.6c-0.3,0.7-1.1,1.2-1.7,1L397.6,144.3z"/>
		</g>
	</g>
	<polygon class="st0" points="49.4,60.5 52.2,66 58.4,65.8 61,72.1 67.6,69.8 70.9,76.9 77.2,75.5 81.5,81.8 79.2,83.4 76,78.7 
		69.3,80.1 66.1,73.4 59.4,75.7 56.5,68.7 50.4,68.9 47.9,63.8 43.9,64.8 43.2,62 	"/>
	<polygon class="st1" points="382.9,200 388.5,202.3 393.1,198.1 399.3,201.1 402.7,195.1 409.8,198.2 413.7,193 421.1,194.9 
		420.4,197.7 414.9,196.3 410.8,201.7 403.9,198.7 400.4,204.8 393.6,201.5 389.2,205.7 383.9,203.5 381.5,206.9 379.2,205.2 	"/>
</g>
</svg>
